<svg fill="none" height="100%" width="100%" viewBox="0 0 500 500" xmlns:xlink="http://www.w3.org/1999/xlink" xmlns="http://www.w3.org/2000/svg"><defs><clipPath id="i0"><rect height="750" width="750" y="0" x="0" /></clipPath><filter id="i1"><feComponentTransfer in="SourceGraphic"><feFuncA tableValues="1 0" type="table" /></feComponentTransfer></filter><mask height="20000" width="20000" y="-10000" x="-10000" maskContentUnits="userSpaceOnUse" maskUnits="userSpaceOnUse" style="mask-type: alpha" mask-type="alpha" id="i2"><g filter="url(#i1)"><rect opacity="0" fill="#ffffff" height="500" width="500" y="0" x="0" /><g transform="matrix(0.179,0,0,0.179,-67.084,-67.084)"><g transform="matrix(5.59,0,0,5.59,375,375)"><g id="i3"><g transform="translate(-0.558,-51.547)"><g transform="rotate(0)"><animateTransform repeatCount="indefinite" type="rotate" attributeName="transform" dur="4s" begin="0s" calcMode="spline" values="0; -20; 15; -8; 4; -2; 1; -0.5; 0.25; 0; 0" keyTimes="0; 0.09; 0.17; 0.26; 0.36; 0.45; 0.54; 0.63; 0.73; 0.84; 1" keySplines="0.333 0 0.667 1; 0.333 0 0.667 1; 0.333 0 0.667 1; 0.333 0 0.667 1; 0.333 0 0.667 1; 0.333 0 0.667 1; 0.333 0 0.667 1; 0.333 0 0.667 1; 0.333 0 0.667 1; 0 0 1 1" fill="freeze" /><g transform="scale(1,1) translate(-44.938,-0.25)"><g transform="matrix(1,0,0,1,0,5)" id="i4"><g id="i5" transform="matrix(1,0,0,1,45.548,43.482)"><path fill="#dae5e6" d="M42.726,35.646C42.726,35.646,30.954,26.018,30.954,26.018C30.954,26.018,30.954,-1.782,30.954,-1.782C30.954,-16.618,20.596,-29.145,6.757,-32.511C6.757,-32.511,6.757,-35.863,6.757,-35.863C6.757,-39.916,3.442,-43.231,-0.611,-43.231C-4.664,-43.231,-7.98,-39.916,-7.98,-35.863C-7.98,-35.863,-7.98,-32.54,-7.98,-32.54C-21.88,-29.218,-32.298,-16.661,-32.298,-1.782C-32.298,-1.782,-32.298,25.914,-32.298,25.914C-32.298,25.914,-32.353,25.914,-32.353,25.914C-32.353,25.914,-43.005,35.871,-43.005,35.871C-45.299,39.036,-42.776,43.231,-38.58,43.231C-38.58,43.231,-26.402,43.231,-26.402,43.231C-26.402,43.231,25.058,43.231,25.058,43.231C25.058,43.231,38.472,43.231,38.472,43.231C42.807,43.231,45.299,38.789,42.726,35.646Z" /></g></g></g></g></g></g></g></g></g></mask><g id="i6"><g mask="url(#i2)" transform="matrix(5.59,0,0,5.59,375,375)" id="i7"><g id="i3"><g transform="translate(-0.558,-51.547)"><g transform="rotate(0)"><animateTransform repeatCount="indefinite" type="rotate" attributeName="transform" dur="4s" begin="0s" calcMode="spline" values="0; -20; 15; -8; 4; -2; 1; -0.5; 0.25; 0; 0" keyTimes="0; 0.09; 0.17; 0.26; 0.36; 0.45; 0.54; 0.63; 0.73; 0.84; 1" keySplines="0.333 0 0.667 1; 0.333 0 0.667 1; 0.333 0 0.667 1; 0.333 0 0.667 1; 0.333 0 0.667 1; 0.333 0 0.667 1; 0.333 0 0.667 1; 0.333 0 0.667 1; 0.333 0 0.667 1; 0 0 1 1" fill="freeze" /><g transform="scale(1,1) translate(-44.938,-0.25)"><g id="i8"><g transform="translate(45.496,79.797)"><animateTransform repeatCount="indefinite" type="translate" attributeName="transform" dur="4s" begin="0s" calcMode="spline" values="45.496 79.797; 45.496 79.797; 23.496 79.797; 67.496 79.797; 32.496 79.797; 59.496 79.797; 39.496 79.797; 55.496 79.797; 40.277 79.797; 47.975 79.797; 44.522 79.797; 45.496 79.797; 45.496 79.797" keyTimes="0; 0.05; 0.14; 0.22; 0.31; 0.41; 0.5; 0.59; 0.68; 0.78; 0.88; 0.97; 1" keySplines="0 0 1 1; 0.333 0 0.667 1; 0.333 0 0.667 1; 0.333 0 0.667 1; 0.333 0 0.667 1; 0.333 0 0.667 1; 0.333 0 0.667 1; 0.333 0 0.667 1; 0.333 0 0.667 1; 0.333 0 0.667 1; 0.333 0 0.667 1; 0 0 1 1" fill="freeze" /><g transform="scale(1,1) translate(0,12)"><g id="i5"><ellipse ry="11.5" rx="11.5" cy="0" cx="0" fill="#dae5e6"><animate repeatCount="indefinite" attributeName="cy" dur="4s" begin="0s" fill="freeze" values="0; 0; -3; 0; -2.75; 0; -2; 0; -1.5; 0; -1; 0; -0.6; 0; 0.4; 0; 0" keyTimes="0; 0.05; 0.14; 0.18; 0.22; 0.27; 0.31; 0.36; 0.41; 0.46; 0.5; 0.54; 0.59; 0.63; 0.68; 0.78; 1" keySplines="0 0 1 1; 0.333 0 0.667 1; 0.333 0 0.667 1; 0.333 0 0.667 1; 0.333 0 0.667 1; 0.333 0 0.667 1; 0.333 0 0.667 1; 0.333 0 0.667 1; 0.333 0 0.667 1; 0.333 0 0.667 1; 0.333 0 0.667 1; 0.333 0 0.667 1; 0.333 0 0.667 1; 0.333 0 0.667 1; 0.333 0 0.667 1; 0 0 1 1" calcMode="spline" /></ellipse></g></g></g></g></g></g></g></g></g><g display="none" transform="matrix(5.59,0,0,5.59,375,375)" id="i7"><g id="i3"><g transform="translate(-0.558,-51.547)"><g transform="rotate(0)"><animateTransform repeatCount="indefinite" type="rotate" attributeName="transform" dur="4s" begin="0s" calcMode="spline" values="0; -20; 15; -8; 4; -2; 1; -0.5; 0.25; 0; 0" keyTimes="0; 0.09; 0.17; 0.26; 0.36; 0.45; 0.54; 0.63; 0.73; 0.84; 1" keySplines="0.333 0 0.667 1; 0.333 0 0.667 1; 0.333 0 0.667 1; 0.333 0 0.667 1; 0.333 0 0.667 1; 0.333 0 0.667 1; 0.333 0 0.667 1; 0.333 0 0.667 1; 0.333 0 0.667 1; 0 0 1 1" fill="freeze" /><g transform="scale(1,1) translate(-44.938,-0.25)"><g transform="matrix(1,0,0,1,0,5)" id="i4"><g id="i5" transform="matrix(1,0,0,1,45.548,43.482)"><path fill="#dae5e6" d="M42.726,35.646C42.726,35.646,30.954,26.018,30.954,26.018C30.954,26.018,30.954,-1.782,30.954,-1.782C30.954,-16.618,20.596,-29.145,6.757,-32.511C6.757,-32.511,6.757,-35.863,6.757,-35.863C6.757,-39.916,3.442,-43.231,-0.611,-43.231C-4.664,-43.231,-7.98,-39.916,-7.98,-35.863C-7.98,-35.863,-7.98,-32.54,-7.98,-32.54C-21.88,-29.218,-32.298,-16.661,-32.298,-1.782C-32.298,-1.782,-32.298,25.914,-32.298,25.914C-32.298,25.914,-32.353,25.914,-32.353,25.914C-32.353,25.914,-43.005,35.871,-43.005,35.871C-45.299,39.036,-42.776,43.231,-38.58,43.231C-38.58,43.231,-26.402,43.231,-26.402,43.231C-26.402,43.231,25.058,43.231,25.058,43.231C25.058,43.231,38.472,43.231,38.472,43.231C42.807,43.231,45.299,38.789,42.726,35.646Z" /></g></g></g></g></g></g></g><g transform="matrix(5.59,0,0,5.59,375,375)" id="i7"><g id="i3"><g transform="translate(-0.558,-51.547)"><g transform="rotate(0)"><animateTransform repeatCount="indefinite" type="rotate" attributeName="transform" dur="4s" begin="0s" calcMode="spline" values="0; -20; 15; -8; 4; -2; 1; -0.5; 0.25; 0; 0" keyTimes="0; 0.09; 0.17; 0.26; 0.36; 0.45; 0.54; 0.63; 0.73; 0.84; 1" keySplines="0.333 0 0.667 1; 0.333 0 0.667 1; 0.333 0 0.667 1; 0.333 0 0.667 1; 0.333 0 0.667 1; 0.333 0 0.667 1; 0.333 0 0.667 1; 0.333 0 0.667 1; 0.333 0 0.667 1; 0 0 1 1" fill="freeze" /><g transform="scale(1,1) translate(-44.938,-0.25)"><g id="i5" transform="matrix(1,0,0,1,45.548,43.482)"><path fill="#dae5e6" d="M42.726,35.646C42.726,35.646,30.954,26.018,30.954,26.018C30.954,26.018,30.954,-1.782,30.954,-1.782C30.954,-16.618,20.596,-29.145,6.757,-32.511C6.757,-32.511,6.757,-35.863,6.757,-35.863C6.757,-39.916,3.442,-43.231,-0.611,-43.231C-4.664,-43.231,-7.98,-39.916,-7.98,-35.863C-7.98,-35.863,-7.98,-32.54,-7.98,-32.54C-21.88,-29.218,-32.298,-16.661,-32.298,-1.782C-32.298,-1.782,-32.298,25.914,-32.298,25.914C-32.298,25.914,-32.353,25.914,-32.353,25.914C-32.353,25.914,-43.005,35.871,-43.005,35.871C-45.299,39.036,-42.776,43.231,-38.58,43.231C-38.58,43.231,-26.402,43.231,-26.402,43.231C-26.402,43.231,25.058,43.231,25.058,43.231C25.058,43.231,38.472,43.231,38.472,43.231C42.807,43.231,45.299,38.789,42.726,35.646Z" /></g></g></g></g></g></g><g transform="matrix(5.59,0,0,5.59,375,375)" id="i7"><g id="i9"><g transform="translate(30.962,-25.917)"><g transform="rotate(0)"><animateTransform repeatCount="indefinite" type="rotate" attributeName="transform" dur="4s" begin="0s" calcMode="spline" values="0; 0; -20; 15; -10; 6; -4; 2; -1; 0; 0" keyTimes="0; 0.02; 0.08875; 0.14986; 0.21861; 0.295; 0.35611; 0.42486; 0.49361; 0.57; 1" keySplines="0 0 1 1; 0.333 0 0.667 1; 0.333 0 0.667 1; 0.333 0 0.667 1; 0.333 0 0.667 1; 0.333 0 0.667 1; 0.333 0 0.667 1; 0.333 0 0.667 1; 0.333 0 0.667 1; 0 0 1 1" fill="freeze" /><g transform="scale(0,0)"><animateTransform repeatCount="indefinite" type="scale" attributeName="transform" dur="4s" begin="0s" calcMode="spline" values="0 0; 1.1 1.1; 0.9 0.9; 1.05 1.05; 0.97 0.97; 1.02 1.02; 0.99 0.99; 1.005 1.005; 1 1; 1 1" keyTimes="0; 0.06875; 0.12986; 0.19861; 0.275; 0.33611; 0.40486; 0.47361; 0.55; 1" keySplines="0.333 0 0.667 1; 0.333 0 0.667 1; 0.333 0 0.667 1; 0.333 0 0.833 1; 0.167 0 0.833 1; 0.167 0 0.833 1; 0.167 0 0.833 1; 0.167 0 0.833 1; 0 0 1 1" fill="freeze" /><g transform="translate(-21.88,-21.88)"><g id="i5" transform="matrix(1,0,0,1,21.88,21.88)"><path fill="#d93025" d="M21.63,0C21.63,11.945,11.946,21.63,0,21.63C-11.945,21.63,-21.63,11.945,-21.63,0C-21.63,-11.946,-11.945,-21.63,0,-21.63C11.946,-21.63,21.63,-11.946,21.63,0Z" /></g></g></g></g></g></g></g><g transform="matrix(5.59,0,0,5.59,375,375)" id="i7"><g id="i9"><g transform="translate(30.962,-25.917)"><g transform="rotate(0)"><animateTransform repeatCount="indefinite" type="rotate" attributeName="transform" dur="4s" begin="0s" calcMode="spline" values="0; 0; -20; 15; -10; 6; -4; 2; -1; 0; 0" keyTimes="0; 0.02; 0.08875; 0.14986; 0.21861; 0.295; 0.35611; 0.42486; 0.49361; 0.57; 1" keySplines="0 0 1 1; 0.333 0 0.667 1; 0.333 0 0.667 1; 0.333 0 0.667 1; 0.333 0 0.667 1; 0.333 0 0.667 1; 0.333 0 0.667 1; 0.333 0 0.667 1; 0.333 0 0.667 1; 0 0 1 1" fill="freeze" /><g transform="scale(0,0)"><animateTransform repeatCount="indefinite" type="scale" attributeName="transform" dur="4s" begin="0s" calcMode="spline" values="0 0; 1.1 1.1; 0.9 0.9; 1.05 1.05; 0.97 0.97; 1.02 1.02; 0.99 0.99; 1.005 1.005; 1 1; 1 1" keyTimes="0; 0.06875; 0.12986; 0.19861; 0.275; 0.33611; 0.40486; 0.47361; 0.55; 1" keySplines="0.333 0 0.667 1; 0.333 0 0.667 1; 0.333 0 0.667 1; 0.333 0 0.833 1; 0.167 0 0.833 1; 0.167 0 0.833 1; 0.167 0 0.833 1; 0.167 0 0.833 1; 0 0 1 1" fill="freeze" /><g transform="translate(-21.88,-21.88)"><g transform="matrix(1,0,0,1,21.917,31.526)" id="i10"><text fill="#ffffff" dominant-baseline="middle" text-anchor="middle" font-size="28" font-family="Helvetica, Arial, sans-serif">1</text></g></g></g></g></g></g></g><g transform="matrix(5.59,0,0,5.59,375,375)" opacity="0" id="i7" /></g></defs><g transform="matrix(0.667,0,0,0.667,-0.001,-0.001)" id="i11"><g clip-path="url(#i0)"><g mask="url(#i2)" transform="matrix(5.59,0,0,5.59,375,375)"><g><g transform="translate(-0.558,-51.547)"><g transform="rotate(0)"><animateTransform repeatCount="indefinite" type="rotate" attributeName="transform" dur="4s" begin="0s" calcMode="spline" values="0; -20; 15; -8; 4; -2; 1; -0.5; 0.25; 0; 0" keyTimes="0; 0.09; 0.17; 0.26; 0.36; 0.45; 0.54; 0.63; 0.73; 0.84; 1" keySplines="0.333 0 0.667 1; 0.333 0 0.667 1; 0.333 0 0.667 1; 0.333 0 0.667 1; 0.333 0 0.667 1; 0.333 0 0.667 1; 0.333 0 0.667 1; 0.333 0 0.667 1; 0.333 0 0.667 1; 0 0 1 1" fill="freeze" /><g transform="scale(1,1) translate(-44.938,-0.25)"><g><g transform="translate(45.496,79.797)"><animateTransform repeatCount="indefinite" type="translate" attributeName="transform" dur="4s" begin="0s" calcMode="spline" values="45.496 79.797; 45.496 79.797; 23.496 79.797; 67.496 79.797; 32.496 79.797; 59.496 79.797; 39.496 79.797; 55.496 79.797; 40.277 79.797; 47.975 79.797; 44.522 79.797; 45.496 79.797; 45.496 79.797" keyTimes="0; 0.05; 0.14; 0.22; 0.31; 0.41; 0.5; 0.59; 0.68; 0.78; 0.88; 0.97; 1" keySplines="0 0 1 1; 0.333 0 0.667 1; 0.333 0 0.667 1; 0.333 0 0.667 1; 0.333 0 0.667 1; 0.333 0 0.667 1; 0.333 0 0.667 1; 0.333 0 0.667 1; 0.333 0 0.667 1; 0.333 0 0.667 1; 0.333 0 0.667 1; 0 0 1 1" fill="freeze" /><g transform="scale(1,1) translate(0,12)"><g><ellipse ry="11.5" rx="11.5" cy="0" cx="0" fill="#dae5e6"><animate repeatCount="indefinite" attributeName="cy" dur="4s" begin="0s" fill="freeze" values="0; 0; -3; 0; -2.75; 0; -2; 0; -1.5; 0; -1; 0; -0.6; 0; 0.4; 0; 0" keyTimes="0; 0.05; 0.14; 0.18; 0.22; 0.27; 0.31; 0.36; 0.41; 0.46; 0.5; 0.54; 0.59; 0.63; 0.68; 0.78; 1" keySplines="0 0 1 1; 0.333 0 0.667 1; 0.333 0 0.667 1; 0.333 0 0.667 1; 0.333 0 0.667 1; 0.333 0 0.667 1; 0.333 0 0.667 1; 0.333 0 0.667 1; 0.333 0 0.667 1; 0.333 0 0.667 1; 0.333 0 0.667 1; 0.333 0 0.667 1; 0.333 0 0.667 1; 0.333 0 0.667 1; 0.333 0 0.667 1; 0 0 1 1" calcMode="spline" /></ellipse></g></g></g></g></g></g></g></g></g><g display="none" transform="matrix(5.59,0,0,5.59,375,375)"><g><g transform="translate(-0.558,-51.547)"><g transform="rotate(0)"><animateTransform repeatCount="indefinite" type="rotate" attributeName="transform" dur="4s" begin="0s" calcMode="spline" values="0; -20; 15; -8; 4; -2; 1; -0.5; 0.25; 0; 0" keyTimes="0; 0.09; 0.17; 0.26; 0.36; 0.45; 0.54; 0.63; 0.73; 0.84; 1" keySplines="0.333 0 0.667 1; 0.333 0 0.667 1; 0.333 0 0.667 1; 0.333 0 0.667 1; 0.333 0 0.667 1; 0.333 0 0.667 1; 0.333 0 0.667 1; 0.333 0 0.667 1; 0.333 0 0.667 1; 0 0 1 1" fill="freeze" /><g transform="scale(1,1) translate(-44.938,-0.25)"><g transform="matrix(1,0,0,1,0,5)"><g transform="matrix(1,0,0,1,45.548,43.482)"><path fill="#dae5e6" d="M42.726,35.646C42.726,35.646,30.954,26.018,30.954,26.018C30.954,26.018,30.954,-1.782,30.954,-1.782C30.954,-16.618,20.596,-29.145,6.757,-32.511C6.757,-32.511,6.757,-35.863,6.757,-35.863C6.757,-39.916,3.442,-43.231,-0.611,-43.231C-4.664,-43.231,-7.98,-39.916,-7.98,-35.863C-7.98,-35.863,-7.98,-32.54,-7.98,-32.54C-21.88,-29.218,-32.298,-16.661,-32.298,-1.782C-32.298,-1.782,-32.298,25.914,-32.298,25.914C-32.298,25.914,-32.353,25.914,-32.353,25.914C-32.353,25.914,-43.005,35.871,-43.005,35.871C-45.299,39.036,-42.776,43.231,-38.58,43.231C-38.58,43.231,-26.402,43.231,-26.402,43.231C-26.402,43.231,25.058,43.231,25.058,43.231C25.058,43.231,38.472,43.231,38.472,43.231C42.807,43.231,45.299,38.789,42.726,35.646Z" /></g></g></g></g></g></g></g><g transform="matrix(5.59,0,0,5.59,375,375)"><g><g transform="translate(-0.558,-51.547)"><g transform="rotate(0)"><animateTransform repeatCount="indefinite" type="rotate" attributeName="transform" dur="4s" begin="0s" calcMode="spline" values="0; -20; 15; -8; 4; -2; 1; -0.5; 0.25; 0; 0" keyTimes="0; 0.09; 0.17; 0.26; 0.36; 0.45; 0.54; 0.63; 0.73; 0.84; 1" keySplines="0.333 0 0.667 1; 0.333 0 0.667 1; 0.333 0 0.667 1; 0.333 0 0.667 1; 0.333 0 0.667 1; 0.333 0 0.667 1; 0.333 0 0.667 1; 0.333 0 0.667 1; 0.333 0 0.667 1; 0 0 1 1" fill="freeze" /><g transform="scale(1,1) translate(-44.938,-0.25)"><g transform="matrix(1,0,0,1,45.548,43.482)"><path fill="#dae5e6" d="M42.726,35.646C42.726,35.646,30.954,26.018,30.954,26.018C30.954,26.018,30.954,-1.782,30.954,-1.782C30.954,-16.618,20.596,-29.145,6.757,-32.511C6.757,-32.511,6.757,-35.863,6.757,-35.863C6.757,-39.916,3.442,-43.231,-0.611,-43.231C-4.664,-43.231,-7.98,-39.916,-7.98,-35.863C-7.98,-35.863,-7.98,-32.54,-7.98,-32.54C-21.88,-29.218,-32.298,-16.661,-32.298,-1.782C-32.298,-1.782,-32.298,25.914,-32.298,25.914C-32.298,25.914,-32.353,25.914,-32.353,25.914C-32.353,25.914,-43.005,35.871,-43.005,35.871C-45.299,39.036,-42.776,43.231,-38.58,43.231C-38.58,43.231,-26.402,43.231,-26.402,43.231C-26.402,43.231,25.058,43.231,25.058,43.231C25.058,43.231,38.472,43.231,38.472,43.231C42.807,43.231,45.299,38.789,42.726,35.646Z" /></g></g></g></g></g></g><g transform="matrix(5.59,0,0,5.59,375,375)"><g><g transform="translate(30.962,-25.917)"><g transform="rotate(0)"><animateTransform repeatCount="indefinite" type="rotate" attributeName="transform" dur="4s" begin="0s" calcMode="spline" values="0; 0; -20; 15; -10; 6; -4; 2; -1; 0; 0" keyTimes="0; 0.02; 0.08875; 0.14986; 0.21861; 0.295; 0.35611; 0.42486; 0.49361; 0.57; 1" keySplines="0 0 1 1; 0.333 0 0.667 1; 0.333 0 0.667 1; 0.333 0 0.667 1; 0.333 0 0.667 1; 0.333 0 0.667 1; 0.333 0 0.667 1; 0.333 0 0.667 1; 0.333 0 0.667 1; 0 0 1 1" fill="freeze" /><g transform="scale(0,0)"><animateTransform repeatCount="indefinite" type="scale" attributeName="transform" dur="4s" begin="0s" calcMode="spline" values="0 0; 1.1 1.1; 0.9 0.9; 1.05 1.05; 0.97 0.97; 1.02 1.02; 0.99 0.99; 1.005 1.005; 1 1; 1 1" keyTimes="0; 0.06875; 0.12986; 0.19861; 0.275; 0.33611; 0.40486; 0.47361; 0.55; 1" keySplines="0.333 0 0.667 1; 0.333 0 0.667 1; 0.333 0 0.667 1; 0.333 0 0.833 1; 0.167 0 0.833 1; 0.167 0 0.833 1; 0.167 0 0.833 1; 0.167 0 0.833 1; 0 0 1 1" fill="freeze" /><g transform="translate(-21.88,-21.88)"><g transform="matrix(1,0,0,1,21.88,21.88)"><path fill="#d93025" d="M21.63,0C21.63,11.945,11.946,21.63,0,21.63C-11.945,21.63,-21.63,11.945,-21.63,0C-21.63,-11.946,-11.945,-21.63,0,-21.63C11.946,-21.63,21.63,-11.946,21.63,0Z" /></g></g></g></g></g></g></g><g transform="matrix(5.59,0,0,5.59,375,375)"><g><g transform="translate(30.962,-25.917)"><g transform="rotate(0)"><animateTransform repeatCount="indefinite" type="rotate" attributeName="transform" dur="4s" begin="0s" calcMode="spline" values="0; 0; -20; 15; -10; 6; -4; 2; -1; 0; 0" keyTimes="0; 0.02; 0.08875; 0.14986; 0.21861; 0.295; 0.35611; 0.42486; 0.49361; 0.57; 1" keySplines="0 0 1 1; 0.333 0 0.667 1; 0.333 0 0.667 1; 0.333 0 0.667 1; 0.333 0 0.667 1; 0.333 0 0.667 1; 0.333 0 0.667 1; 0.333 0 0.667 1; 0.333 0 0.667 1; 0 0 1 1" fill="freeze" /><g transform="scale(0,0)"><animateTransform repeatCount="indefinite" type="scale" attributeName="transform" dur="4s" begin="0s" calcMode="spline" values="0 0; 1.1 1.1; 0.9 0.9; 1.05 1.05; 0.97 0.97; 1.02 1.02; 0.99 0.99; 1.005 1.005; 1 1; 1 1" keyTimes="0; 0.06875; 0.12986; 0.19861; 0.275; 0.33611; 0.40486; 0.47361; 0.55; 1" keySplines="0.333 0 0.667 1; 0.333 0 0.667 1; 0.333 0 0.667 1; 0.333 0 0.833 1; 0.167 0 0.833 1; 0.167 0 0.833 1; 0.167 0 0.833 1; 0.167 0 0.833 1; 0 0 1 1" fill="freeze" /><g transform="translate(-21.88,-21.88)"><g transform="matrix(1,0,0,1,21.917,31.526)"><text fill="#ffffff" dominant-baseline="middle" text-anchor="middle" font-size="28" font-family="Helvetica, Arial, sans-serif">1</text></g></g></g></g></g></g></g><g transform="matrix(5.59,0,0,5.59,375,375)" opacity="0" /></g></g></svg>