<svg xmlns="http://www.w3.org/2000/svg" width="2251" height="910" viewBox="0 0 2251 910" fill="none"><g clip-path="url(#clip0_2100_1795)"><rect width="2251" height="910" fill="url(#paint0_linear_2100_1795)"/><path d="M1276.58 267.159C599.659 -122.232 4.55437e-05 28.8385 4.55437e-05 28.8385L-3.9384e-05 901L1850 901C1850 901 1701.97 511.86 1276.58 267.159Z" fill="url(#paint1_linear_2100_1795)"/><path d="M1584.5 367.834C803.069 180.231 193 910 193 910L645.728 910L2251 910C2251 910 2157.57 505.415 1584.5 367.834Z" fill="url(#paint2_linear_2100_1795)"/><path fill-rule="evenodd" clip-rule="evenodd" d="M1386.71 338.379C724.364 300.017 225.249 871.815 192.691 910L1867 910C1867 910 1740.7 581.526 1386.71 338.379Z" fill="url(#paint3_linear_2100_1795)"/></g><defs><linearGradient id="paint0_linear_2100_1795" x1="1086.5" y1="481" x2="2368" y2="414" gradientUnits="userSpaceOnUse"><stop stop-color="#F77E0E"/><stop offset="1" stop-color="#FDB324"/></linearGradient><linearGradient id="paint1_linear_2100_1795" x1="-178" y1="179.5" x2="1035.66" y2="1330.32" gradientUnits="userSpaceOnUse"><stop stop-color="#F77E0E"/><stop offset="1" stop-color="#FFA400"/></linearGradient><linearGradient id="paint2_linear_2100_1795" x1="1375.5" y1="337" x2="2667.23" y2="615.318" gradientUnits="userSpaceOnUse"><stop stop-color="#FD7900"/><stop offset="1" stop-color="#FCAD21"/></linearGradient><linearGradient id="paint3_linear_2100_1795" x1="2103.5" y1="363.5" x2="-126.984" y2="249.468" gradientUnits="userSpaceOnUse"><stop stop-color="#FCBF21"/><stop offset="0.899492" stop-color="#FC9700"/></linearGradient><clipPath id="clip0_2100_1795"><rect width="2251" height="910" fill="white"/></clipPath></defs></svg>